<svg xmlns="http://www.w3.org/2000/svg"><symbol id="icon-arrow-left" viewBox="0 0 36 16">
  <path fill-rule="evenodd" d="M7.47175644,0.269789227 L0.389789227,7.35175644 C0.0300702576,7.71147541 0.0300702576,8.28852459 0.389789227,8.64824356 L7.47175644,15.7302108 C7.65161593,15.9100703 7.88393443,16 8.12374707,16 C8.36355972,16 8.59587822,15.9100703 8.7757377,15.7302108 C9.13545667,15.3704918 9.13545667,14.7934426 8.7757377,14.4337237 L3.26004684,8.91803279 L34.6455269,8.91803279 C35.1551288,8.91803279 35.5673068,8.5058548 35.5673068,7.99625293 C35.5673068,7.48665105 35.1551288,7.07447307 34.6455269,7.07447307 L3.25255269,7.07447307 L8.76824356,1.56627635 C9.12796253,1.20655738 9.12796253,0.629508197 8.76824356,0.269789227 C8.40852459,-0.0899297424 7.82398126,-0.0899297424 7.47175644,0.269789227 Z"/>
</symbol><symbol id="icon-arrow-right" viewBox="0 0 36 16">
  <path fill-rule="evenodd" d="M7.47175644,0.269789227 L0.389789227,7.35175644 C0.0300702576,7.71147541 0.0300702576,8.28852459 0.389789227,8.64824356 L7.47175644,15.7302108 C7.65161593,15.9100703 7.88393443,16 8.12374707,16 C8.36355972,16 8.59587822,15.9100703 8.7757377,15.7302108 C9.13545667,15.3704918 9.13545667,14.7934426 8.7757377,14.4337237 L3.26004684,8.91803279 L34.6455269,8.91803279 C35.1551288,8.91803279 35.5673068,8.5058548 35.5673068,7.99625293 C35.5673068,7.48665105 35.1551288,7.07447307 34.6455269,7.07447307 L3.25255269,7.07447307 L8.76824356,1.56627635 C9.12796253,1.20655738 9.12796253,0.629508197 8.76824356,0.269789227 C8.40852459,-0.0899297424 7.82398126,-0.0899297424 7.47175644,0.269789227 Z" transform="matrix(-1 0 0 1 36 0)"/>
</symbol><symbol id="icon-Clouse" viewBox="0 0 19 19">
  <path fill-rule="evenodd" d="M533,414 L524,414 L524,416 L533,416 L533,426 L535,426 L535,416 L546,416 L546,414 L535,414 L535,404 L533,404 L533,414 Z" transform="rotate(45 761.378 -421.231)"/>
</symbol><symbol id="icon-docs" viewBox="0 0 35 48">
  <g fill-rule="evenodd">
    <path d="M34.6517593,12.90525 L22.1802778,0.277875 C22.004537,0.0999375 21.7662963,0 21.5176852,0 L3.94425926,0 C1.81009259,0 0.0738888889,1.75790625 0.0738888889,3.91875 L0.0738888889,44.08125 C0.0738888889,46.2420937 1.81009259,48 3.94425926,48 L31.0557407,48 C33.1899074,48 34.9261111,46.2420937 34.9261111,44.08125 L34.9261111,13.5760312 C34.9261111,13.3245 34.8274074,13.0830937 34.6517593,12.90525 Z M22.4547222,3.23896875 L31.7272222,12.6271875 L24.4511111,12.6271875 C23.3502778,12.6271875 22.4548148,11.7204375 22.4548148,10.60575 L22.4548148,3.23896875 L22.4547222,3.23896875 Z M33.0522222,44.08125 C33.0522222,45.1958438 32.1566667,46.1026875 31.0557407,46.1026875 L3.94425926,46.1026875 C2.84342593,46.1026875 1.94777778,45.1958438 1.94777778,44.08125 L1.94777778,3.91875 C1.94777778,2.80415625 2.84342593,1.8973125 3.94425926,1.8973125 L20.5807407,1.8973125 L20.5807407,10.6059375 C20.5807407,12.7667813 22.3168519,14.5246875 24.4510185,14.5246875 L33.0522222,14.5246875 L33.0522222,44.08125 L33.0522222,44.08125 Z"/>
    <path d="M24.9952778 24.094875L10.0047222 24.094875C9.48731481 24.094875 9.06777778 24.5196562 9.06777778 25.0435312 9.06777778 25.5674062 9.48731481 25.9921875 10.0047222 25.9921875L24.9952778 25.9921875C25.5128704 25.9921875 25.9322222 25.5674062 25.9322222 25.0435312 25.9322222 24.5196562 25.5128704 24.094875 24.9952778 24.094875zM24.9952778 28.332L10.0047222 28.332C9.48731481 28.332 9.06777778 28.7567813 9.06777778 29.2806563 9.06777778 29.8045313 9.48731481 30.2293125 10.0047222 30.2293125L24.9952778 30.2293125C25.5128704 30.2293125 25.9322222 29.8045313 25.9322222 29.2806563 25.9322222 28.7567813 25.5128704 28.332 24.9952778 28.332zM24.9952778 32.569125L10.0047222 32.569125C9.48731481 32.569125 9.06777778 32.9939062 9.06777778 33.5177812 9.06777778 34.0416563 9.48731481 34.4664375 10.0047222 34.4664375L24.9952778 34.4664375C25.5128704 34.4664375 25.9322222 34.0416563 25.9322222 33.5177812 25.9322222 32.9939062 25.5128704 32.569125 24.9952778 32.569125zM20.1233333 36.8063437L10.0047222 36.8063437C9.48731481 36.8063437 9.06777778 37.231125 9.06777778 37.755 9.06777778 38.278875 9.48731481 38.7036562 10.0047222 38.7036562L20.1233333 38.7036562C20.6409259 38.7036562 21.0602778 38.278875 21.0602778 37.755 21.0602778 37.231125 20.6409259 36.8063437 20.1233333 36.8063437z"/>
  </g>
</symbol></svg>